<?xml version="1.0" encoding="UTF-8"?>
<svg xmlns="http://www.w3.org/2000/svg" viewBox="0 0 1222.27 831.47">
  <defs>
    <style>
      .cls-1 {
        stroke-width: 4px;
      }

      .cls-1, .cls-2, .cls-3, .cls-4, .cls-5 {
        fill: none;
        stroke: #231f20;
        stroke-miterlimit: 10;
      }

      .cls-6 {
        font-size: 60px;
      }

      .cls-6, .cls-7 {
        font-family: Limelight-Regular, Limelight;
      }

      .cls-6, .cls-8, .cls-9 {
        fill: #231f20;
      }

      .cls-7 {
        font-size: 30px;
      }

      .cls-2 {
        stroke-dasharray: 1.02 20.42;
      }

      .cls-2, .cls-3, .cls-4, .cls-5 {
        stroke-linecap: round;
        stroke-width: 3px;
      }

      .cls-9, .cls-10 {
        font-family: Poppins-Regular, Poppins;
        font-size: 18px;
      }

      .cls-3 {
        stroke-dasharray: 1 20.08;
      }

      .cls-5 {
        stroke-dasharray: 1 20;
      }
    </style>
  </defs>
  <g id="Layer_3" data-name="Layer 3">
    <path class="cls-1" d="M722.98,2c-161.39,0-292.22,130.83-292.22,292.22h-.32v535.24h584.76V294.22C1015.2,132.83,884.37,2,722.98,2Z"/>
  </g>
  <g id="Layer_1" data-name="Layer 1">
    <g>
      <text class="cls-8" transform="translate(484.52 230.66) scale(.88 1)"><tspan class="cls-7"><tspan x="0" y="0">Coffee</tspan></tspan><tspan class="cls-10"><tspan x="0" y="30">Drip</tspan></tspan><tspan class="cls-10"><tspan x="0" y="60">Cold Brew</tspan></tspan><tspan class="cls-10"><tspan x="0" y="90">Espresso</tspan></tspan><tspan class="cls-10"><tspan x="0" y="120">Latte</tspan></tspan><tspan class="cls-10"><tspan x="0" y="150">Flavored Latte</tspan></tspan><tspan class="cls-10"><tspan x="0" y="180">Americano</tspan></tspan><tspan class="cls-10"><tspan x="0" y="210">Cappuccino</tspan></tspan><tspan class="cls-10"><tspan x="0" y="240">French Press</tspan></tspan></text>
      <text class="cls-9" transform="translate(820.24 260.66)"><tspan x="0" y="0">2.59 / 3.01 / 3.43</tspan><tspan x="0" y="30">2.59 / 3.01 / 3.43</tspan><tspan x="105.8" y="60">2.23</tspan><tspan x="-1.42" y="90">4.25 / 5.03 / 5.81</tspan><tspan x="-.27" y="120">5.19 / 5.97 / 6.74</tspan><tspan x="4.7" y="150">3.11 / 3.68 / 4.25</tspan><tspan x="-1.42" y="180">4.25 / 5.03 / 5.81</tspan><tspan x="109.56" y="210">6.12</tspan></text>
    </g>
    <g>
      <text class="cls-8" transform="translate(483.27 506.61)"><tspan class="cls-7"><tspan x="0" y="0">Non-Coffee</tspan></tspan><tspan class="cls-10"><tspan x="0" y="30">Hot Chocolate</tspan></tspan><tspan class="cls-10"><tspan x="0" y="60">Fruit Smoothie</tspan></tspan><tspan class="cls-10"><tspan x="0" y="90">Protein Smoothie</tspan></tspan><tspan class="cls-10"><tspan x="0" y="120">London Fog</tspan></tspan><tspan class="cls-10"><tspan x="0" y="150">Chai Latte</tspan></tspan><tspan class="cls-10"><tspan x="0" y="180">Tea</tspan></tspan></text>
      <text class="cls-9" transform="translate(821.94 536.61)"><tspan x="0" y="0">3.37 / 3.89 / 4.41</tspan><tspan x="-2.75" y="30">4.88 / 5.50 / 6.12</tspan><tspan x="102.45" y="60">6.69</tspan><tspan x="108.27" y="90">4.15</tspan><tspan x="3.42" y="120">4.10 / 4.87 / 5.81</tspan><tspan x="105.1" y="150">2.33</tspan></text>
    </g>
    <g>
      <text class="cls-8" transform="translate(482.88 721.39)"><tspan class="cls-7"><tspan x="0" y="0">Extas</tspan></tspan><tspan class="cls-10"><tspan x="0" y="30">Oat, Almond, or Soy Milk</tspan></tspan><tspan class="cls-10"><tspan x="0" y="60">Extra Shot</tspan></tspan><tspan class="cls-10"><tspan x="0" y="90">Extra Flavor</tspan></tspan></text>
      <text class="cls-9" transform="translate(937.33 751.39)"><tspan x="0" y="0">.52</tspan><tspan x="-1.03" y="30">.99</tspan><tspan x="1.48" y="60">.72</tspan></text>
    </g>
    <text class="cls-6" transform="translate(553.44 137.64)"><tspan x="0" y="0">Cuppa Joe</tspan></text>
    <g>
      <line class="cls-4" x1="581.39" y1="222.1" x2="581.89" y2="222.1"/>
      <line class="cls-5" x1="601.89" y1="222.1" x2="948.93" y2="222.1"/>
      <line class="cls-4" x1="958.93" y1="222.1" x2="959.43" y2="222.1"/>
    </g>
    <g>
      <line class="cls-4" x1="667.62" y1="498.78" x2="668.12" y2="498.78"/>
      <line class="cls-3" x1="688.2" y1="498.78" x2="952.22" y2="498.78"/>
      <line class="cls-4" x1="962.26" y1="498.78" x2="962.76" y2="498.78"/>
    </g>
    <g>
      <line class="cls-4" x1="573.52" y1="714.12" x2="574.02" y2="714.12"/>
      <line class="cls-2" x1="594.44" y1="714.12" x2="948.72" y2="714.12"/>
      <line class="cls-4" x1="958.93" y1="714.12" x2="959.43" y2="714.12"/>
    </g>
  </g>
</svg>